<svg width="151" height="167" viewBox="0 0 151 167" fill="none" xmlns="http://www.w3.org/2000/svg">
<path d="M90.2373 44.9285C92.3996 41.0621 89.4804 38.8076 87.7506 38.1636C86.4737 39.9128 83.1283 51.7012 83.9116 55.5727C84.5382 58.6699 82.2185 65.4738 80.9803 68.4886C78.5693 71.6786 77.5048 82.2446 77.2739 87.1288C77.112 92.201 76.4789 103.419 75.2417 107.713C74.0046 112.007 75.0272 117.284 75.6931 119.386C74.4424 126.138 72.2666 140.355 73.5697 143.203C74.8728 146.052 72.96 152.279 71.8407 155.037L74.8209 156.181C75.9941 154.15 77.9523 149.207 76.4006 145.682C74.8488 142.157 75.9092 134.771 76.6334 131.518C77.229 128.206 78.2612 120.105 77.6248 114.196C76.9884 108.287 78.6037 100.611 79.4909 97.5123L83.5706 75.5354C84.0738 70.2311 85.561 59.1898 87.4844 57.4589C89.8887 55.2953 87.5345 49.7615 90.2373 44.9285Z" fill="#FFB924"/>
<path d="M39.767 119.149C33.2044 120.793 34.6143 127.762 36.1395 131.041C33.8846 131.87 36.0616 137.789 41.0094 144.289C50.068 152.668 56.0316 152.098 59.3277 150.729C60.7686 150.13 61.6882 148.615 61.3595 147.09C60.8602 144.773 59.5192 143.84 60.425 142.271C63.2869 138.915 61.4437 135.178 60.1643 133.728C56.0996 128.183 46.3295 117.504 39.767 119.149Z" fill="#FFB924"/>
<path d="M112.026 77.2283C107.934 75.149 97.1287 79.9316 92.2374 82.5829C89.3079 86.219 83.8128 94.8293 85.2683 100.181C87.0877 106.872 88.7789 106.25 92.7084 107.365C94.7477 109.431 105.629 104.216 105.629 104.216C105.629 104.216 112.2 103.464 117.725 92.7301C124.631 79.3129 117.141 79.8275 112.026 77.2283Z" fill="#FFB924"/>
<path d="M96.3783 137.375C81.3786 140.74 84.2655 127.526 88.169 119.1C88.6929 117.969 89.6828 117.148 90.8016 116.599C93.7267 115.163 95.5509 113.363 95.5509 113.363C103.517 106.309 103.593 109.127 110.162 109.591C115.418 109.963 116.53 115.89 116.429 118.806C116.446 123.493 112.458 133.768 96.3783 137.375Z" fill="#FFB924"/>
<path d="M40.495 95.8687C44.1575 88.4233 51.9039 90.9283 55.521 93.2248C57.8782 94.7049 63.3843 98.0781 66.551 99.7296C70.5095 101.794 69.9747 102.95 68.8305 105.931C67.9152 108.315 69.3442 113.421 70.1731 115.676C71.2092 118.495 68.4311 120.86 62.7242 120.654C57.0172 120.448 49.8097 115.696 46.9194 113.345C46.9194 113.345 42.1516 103.878 40.495 95.8687Z" fill="#FFB924"/>
<path d="M69.7571 58.964C46.9442 34.5791 48.0149 58.0258 53.0507 71.7252C54.6384 76.9008 64.5918 85.7131 68.0322 86.3682C71.4725 87.0233 70.5611 75.8399 72.5509 72.5488C74.0245 70.1115 72.0825 63.8523 70.6784 60.3836C70.4684 59.8648 70.1394 59.3727 69.7571 58.964Z" fill="#FFB924"/>
<path d="M83.5982 17.2905C81.9297 27.3745 89.1228 34.3504 92.9278 36.5779C105.164 35.9187 105.265 20.5253 108.158 18.8218C111.051 17.1184 106.281 10.2332 105.319 6.74713C104.55 3.95829 100.403 2.36781 98.426 1.92117C94.1785 2.84258 85.2666 7.20642 83.5982 17.2905Z" fill="#FFB924"/>
<path d="M92.1229 72.7104C87.2119 71.1881 88.8251 66.3503 90.2456 64.1217C91.2303 57.6805 95.8627 48.9386 102.909 46.3483C109.956 43.7579 111.291 43.9072 114.773 49.0265C118.254 54.1459 111.008 65.7683 107.862 68.5246C104.716 71.2809 98.2617 74.6132 92.1229 72.7104Z" fill="#FFB924"/>
<path d="M78.0989 27.2034C63.639 13.2255 58.3963 25.5202 57.5843 33.5719C58.6343 37.8792 61.4698 46.9274 64.4111 48.6618C68.0876 50.8299 66.3385 49.5531 72.8627 51.6342C78.0821 53.2992 82.3772 47.9235 83.8723 45.0275C84.352 43.0307 81.5814 35.3229 79.2609 29.0013C79.0138 28.3284 78.6143 27.7017 78.0989 27.2034Z" fill="#FFB924"/>
</svg>
