<svg width="522" height="529" viewBox="0 0 522 529" fill="none" xmlns="http://www.w3.org/2000/svg">
<path d="M385.964 507.528C289.846 692.429 254.603 564.911 209.748 507.528C140.324 538.344 22.6257 560.444 107.218 402.321C29.2582 376.816 -81.167 304.767 100.814 220.609C65.5706 155.79 38.0168 44.0043 209.748 115.411C244.999 48.4557 299.466 -63.127 379.564 115.409C441.507 84.5924 564.744 65.0411 498.102 233.365C574.997 255.68 682.649 320.077 498.102 399.138C530.142 469.273 552.569 589.14 385.964 507.528Z" stroke="white" stroke-width="3"/>
<path d="M177.51 55.8593C164.31 51.8593 166.01 59.1927 168.51 63.3593C170.509 67.526 176.108 74.7594 182.508 70.3594C186.342 67.1927 185.508 59.8594 177.51 55.8593Z" fill="white"/>
<path d="M236.508 20.3565C220.508 7.95654 219.508 17.8565 221.008 24.3565C221.508 28.5242 224.208 36.2594 231.008 33.8594C237.808 31.4594 237.508 23.8575 236.508 20.3565Z" fill="white"/>
<path d="M205.008 10.8595C195.808 8.05949 193.508 13.0262 193.508 15.8595C196.308 30.6596 202.341 28.3595 205.008 25.3594C212.208 15.7594 208.008 11.6928 205.008 10.8595Z" fill="white"/>
<path d="M176.507 37.8592C169.707 41.0592 169.674 33.1925 170.507 28.8592C171.507 27.859 173.008 27.8592 174.008 25.3592C175.008 22.8592 180.508 21.8592 183.008 25.3592C185.508 28.8592 185.007 33.8592 176.507 37.8592Z" fill="white"/>
<path d="M190.505 43.8631C196.505 31.0631 201.338 39.5297 203.005 45.3631C205.228 50.166 200.598 54.0285 198.005 55.3594C192.275 54.8611 192.892 51.8815 192.506 48.8594C192.273 47.0289 189.007 48.8594 190.505 43.8631Z" fill="white"/>
<path d="M196.506 78.8617C195.506 75.195 195.106 69.2617 201.506 74.8617C203.006 77.5284 204.105 82.0617 196.506 78.8617Z" fill="white"/>
<path d="M225.006 47.8584C219.006 38.6584 214.173 43.3584 212.506 46.8584C210.106 52.8576 212.506 56.3587 214.006 57.3594C223.606 57.7594 225.34 51.192 225.006 47.8584Z" fill="white"/>
<path d="M215.507 83.8595C210.307 81.8595 215.674 75.0261 219.007 71.8595C225.006 66.8595 224.508 60.8595 229.508 65.3595C234.508 69.8595 228.508 83.8595 226.508 85.3595C224.508 86.8595 222.007 86.3595 215.507 83.8595Z" fill="white"/>
<path d="M257.507 70.3564C251.907 64.7564 246.174 69.0231 244.007 71.8564C241.341 75.8574 238.907 83.4594 250.507 81.8594C262.107 80.2594 260.007 73.5241 257.507 70.3564Z" fill="white"/>
<path d="M283.509 55.357C275.509 46.557 272.176 53.0237 271.509 57.357C271.509 60.3547 267.009 70.3594 277.509 66.8594C285.909 64.0594 285.009 58.0245 283.509 55.357Z" fill="white"/>
<path d="M240.008 9.85753C238.008 -0.142468 252.174 -0.642468 259.508 0.357532C262.308 6.75606 257.341 13.0248 254.508 15.3594C250.508 17.6921 242.008 19.8575 240.008 9.85753Z" fill="white"/>
<path d="M279.508 8.35938C276.708 4.75938 270.341 14.526 267.508 19.8594C265.508 23.3403 269.008 30.8594 274.508 33.3594C278.908 35.3594 283.341 31.8594 285.008 29.8594C287.508 13.3594 283.008 12.8594 279.508 8.35938Z" fill="white"/>
<path d="M260.508 33.3594C255.708 26.1594 252.508 31.3594 251.508 34.8594C250.708 38.8594 253.174 40.8594 254.508 41.3594C261.308 41.7594 261.341 36.1927 260.508 33.3594Z" fill="white"/>
<path d="M298.008 34.8594C293.608 29.2594 290.174 33.526 289.008 36.3594C286.208 37.5594 286.508 41.1927 287.008 42.8594C290.008 48.3594 295.008 46.8594 298.008 45.8594C301.008 44.8594 303.508 41.8594 298.008 34.8594Z" fill="white"/>
<path d="M244.006 60.8575C238.406 60.8575 239.006 56.5241 240.006 54.3575C243.204 45.9575 247.007 49.5241 248.508 52.3575C249.341 55.1908 249.606 60.8575 244.006 60.8575Z" fill="white"/>
</svg>
