<svg width="32" height="32" viewBox="0 0 32 32" fill="none" xmlns="http://www.w3.org/2000/svg">
<g opacity="0.5">
<path fill-rule="evenodd" clip-rule="evenodd" d="M18.0007 1.78027C18.0007 1.78027 18.9873 5.31361 18.9873 8.18027C18.9873 10.9269 17.1873 13.1536 14.4406 13.1536C11.6807 13.1536 9.60065 10.9269 9.60065 8.18027L9.64065 7.70027C6.94732 10.9003 5.33398 15.0469 5.33398 19.5536C5.33398 25.4469 10.1073 30.2203 16.0007 30.2203C21.894 30.2203 26.6673 25.4469 26.6673 19.5536C26.6673 12.3669 23.214 5.95361 18.0007 1.78027ZM15.4273 18.4336C13.614 18.8069 12.534 19.9803 12.534 21.6469C12.534 23.4336 14.014 24.8736 15.854 24.8736C18.5873 24.8736 20.8006 22.6603 20.8006 19.9269C20.8006 18.5003 20.6006 17.1003 20.1873 15.7669C19.134 17.1936 17.254 18.0603 15.4273 18.4336ZM8.00065 19.5536C8.00065 23.9669 11.5873 27.5536 16.0007 27.5536C20.414 27.5536 24.0007 23.9669 24.0007 19.5536C24.0007 16.1403 23.1207 12.8469 21.4806 9.91361C20.774 13.3803 17.9873 15.8203 14.4407 15.8203C12.3607 15.8203 10.494 14.9936 9.14732 13.6469C8.40065 15.5003 8.00065 17.5136 8.00065 19.5536Z" fill="#1C3965"/>
</g>
</svg>
