<svg width="74" height="49" viewBox="0 0 74 49" fill="none" xmlns="http://www.w3.org/2000/svg">
<path d="M60.7602 12.8043C58.9898 -8.00808 40.157 3.08861 36.7855 12.8043C23.6744 -5.91228 11.5279 1.21463 11.8744 12.8043C12.6236 37.8575 27.4205 49.1846 37.7221 47.8713C48.0237 46.5581 62.0713 28.2178 60.7602 12.8043Z" fill="#FFB924"/>
<path d="M66.4867 12.8043C64.7164 -8.00808 45.8835 3.08861 42.5121 12.8043C29.401 -5.91228 17.2545 1.21463 17.601 12.8043C18.3502 37.8575 33.147 49.1846 43.4486 47.8713C53.7502 46.5581 67.7978 28.2178 66.4867 12.8043Z" stroke="#1C3965" stroke-width="0.7"/>
<path d="M4.62419 8C8.79871 10.1766 15.6449 15.6981 9.63362 20.372C6.35161 22.9238 4.91126 24.1575 4.41578 24.6772C4.48663 24.7339 4.55617 24.7881 4.62419 24.8397C4.24512 25.0477 4.00373 25.1093 4.41578 24.6772C2.12641 22.8448 -1.53171 18.3759 0.689573 13.8423C2.9796 9.16847 4.26683 8 4.62419 8Z" fill="#FE6534"/>
<path d="M50.5057 36C46.1599 30.9619 44.3746 19.3086 71.9997 13C78.3416 21.2143 69.1808 25.7048 50.5057 36Z" fill="white"/>
</svg>
