<svg width="63" height="71" viewBox="0 0 63 71" fill="none" xmlns="http://www.w3.org/2000/svg">
<path d="M6.28514 12.7869C10.5982 9.91162 13.4709 14.9449 19.5849 17.0998C30.3742 16.3815 22.1024 10.276 23.541 6.54894C31.0935 -2.6542 40.6417 1.20156 39.5628 6.55101L39.5092 6.65999C36.8083 12.1517 33.8534 18.1598 40.6417 15.5292C44.1183 11.3392 52.0065 5.11405 55.7468 13.7335C56.8257 17.8038 56.0345 25.9445 44.2381 25.9445C41.9604 25.705 38.268 26.0881 41.7206 29.5359C47.9545 29.5359 59.631 31.8344 56.4661 41.0285C55.415 44.9781 54.3619 47.1821 50.7118 50.0071C49.7965 51.2185 49.6328 52.5212 47.8346 52.5212C41.7206 52.5212 37.7645 39.9511 35.6067 38.5145C33.4488 37.0779 32.7295 42.106 33.8084 52.5212C34.6716 60.8533 27.215 61.4998 23.3788 60.7815C14.7473 61.4998 21.5805 49.2889 21.5805 49.2889C29.8524 37.4371 22.3002 37.6765 20.1426 41.0285C18.464 44.9791 13.165 51.7311 5.39712 47.134C-2.37072 42.5369 6.95538 37.5568 12.5894 35.6414C18.4418 29.4047 16.6502 26.3687 8.22541 26.674C6.97718 26.7192 5.71507 26.3882 4.7928 25.5458C-1.36577 19.921 0.585523 14.7971 6.28514 12.7869Z" fill="#FFB924" stroke="#FFB924"/>
<path d="M11.2851 12.7869C15.5982 9.91162 18.4709 14.9449 24.5849 17.0998C35.3742 16.3815 27.1024 10.276 28.541 6.54894C36.0935 -2.6542 45.6417 1.20156 44.5628 6.55101L44.5092 6.65999C41.8083 12.1517 38.8534 18.1598 45.6417 15.5292C49.1183 11.3392 57.0065 5.11405 60.7468 13.7335C61.8257 17.8038 61.0345 25.9445 49.2381 25.9445C46.9604 25.705 43.268 26.0881 46.7206 29.5359C52.9545 29.5359 64.631 31.8344 61.4661 41.0285C60.415 44.9781 59.3619 47.1821 55.7118 50.0071C54.7965 51.2185 54.6328 52.5212 52.8346 52.5212C46.7206 52.5212 42.7645 39.9511 40.6067 38.5145C38.4488 37.0779 37.7295 42.106 38.8084 52.5212C39.6716 60.8533 32.215 61.4998 28.3788 60.7815C19.7473 61.4998 26.5805 49.2889 26.5805 49.2889C34.8524 37.4371 27.3002 37.6765 25.1426 41.0285C23.464 44.9791 18.165 51.7311 10.3971 47.134C2.62928 42.5369 11.9554 37.5568 17.5894 35.6414C23.867 28.9516 21.3495 25.9445 11.2843 26.7935C3.36757 20.6912 5.1665 14.9449 11.2851 12.7869Z" stroke="#1C3965" stroke-width="0.7"/>
<path d="M16.6242 4C20.7987 6.17655 27.6449 11.6981 21.6336 16.372C18.3516 18.9238 16.9113 20.1575 16.4158 20.6772C16.4866 20.7339 16.5562 20.7881 16.6242 20.8397C16.2451 21.0477 16.0037 21.1093 16.4158 20.6772C14.1264 18.8448 10.4683 14.3759 12.6896 9.84233C14.9796 5.16847 16.2668 4 16.6242 4Z" fill="#FE6534"/>
<path d="M20.9573 49.0909C23.9563 43.1517 34.0472 37.0556 50.4178 60.1845C45.2443 69.1805 37.5986 62.4258 20.9573 49.0909Z" fill="white"/>
</svg>
