<svg width="71" height="65" viewBox="0 0 71 65" fill="none" xmlns="http://www.w3.org/2000/svg">
<path d="M30.8268 1C23.8994 24.947 7.3892 31.3978 0 31.6298C24.9385 41.3757 30.9423 57.2707 30.8268 64C31.2886 55.4144 38.1698 36.9204 62 31.6298C44.6816 27.105 32.5587 22.232 30.8268 1Z" fill="#FFB924"/>
<path d="M38.8268 1C31.8994 24.947 15.3892 31.3978 8 31.6298C32.9385 41.3757 38.9423 57.2707 38.8268 64C39.2886 55.4144 46.1698 36.9204 70 31.6298C52.6816 27.105 40.5587 22.232 38.8268 1Z" stroke="#1C3965" stroke-width="0.7"/>
<path d="M44.2054 27.3656C44.878 23.4946 50.4649 17.509 53.1742 15C53.6415 17.5986 54.4079 23.7634 53.7353 27.6344C53.0626 31.5054 47.8491 37.491 45.3265 40C44.6725 37.4014 43.5327 31.2366 44.2054 27.3656Z" fill="#FE6534"/>
</svg>
