<svg width="52" height="64" viewBox="0 0 52 64" fill="none" xmlns="http://www.w3.org/2000/svg">
<path d="M49.7602 22.8043C47.9898 1.99192 29.157 13.0886 25.7855 22.8043C12.6744 4.08772 0.527918 11.2146 0.874418 22.8043C1.62362 47.8575 16.4205 59.1846 26.7221 57.8713C37.0237 56.5581 51.0713 38.2178 49.7602 22.8043Z" fill="#F6F8FD"/>
<path d="M38.1386 18.003C39.6566 16.7018 38.7711 15.2922 38.1386 14.75C37.3253 15.2922 34.0724 19.765 33.8013 21.527C33.5845 22.9366 31.5423 25.4577 30.5483 26.542C29.0302 27.5179 26.9339 31.8281 26.0755 33.8612C25.2171 35.9846 23.2021 40.6382 22.0093 42.2647C20.8165 43.8912 20.428 46.2857 20.3829 47.2797C18.8016 49.9453 15.6661 55.629 15.7745 57.0386C15.8829 58.4482 14.1028 60.7885 13.1992 61.7825L14.2835 62.7313C15.0968 62.0536 16.6961 60.2644 16.5877 58.5295C16.4792 56.7946 18.0786 53.8308 18.8919 52.5657C19.6599 51.2555 21.3587 47.9845 22.0093 45.3821C22.6599 42.7797 24.5394 39.7798 25.3978 38.6051L30.5483 29.9305C31.5875 27.7619 33.9368 23.3161 35.0212 22.8824C36.3766 22.3403 36.241 19.6295 38.1386 18.003Z" fill="#1C3965" stroke="#1C3965"/>
<path d="M5.20154 41.5935C2.16544 41.2682 1.67749 44.4399 1.81303 46.0664C0.728715 46.0664 0.729264 48.9128 1.81303 52.4368C3.7259 56.1829 5.68573 57.4918 7.22384 57.8793C8.73681 58.2605 9.99789 56.9968 9.9945 55.4366C9.9938 55.1157 10.0567 54.8516 10.3521 54.6055C12.087 53.6296 11.8882 51.7591 11.572 50.9459C10.7135 47.964 8.23764 41.9188 5.20154 41.5935Z" fill="#1C3965" stroke="#1C3965"/>
<path d="M42.34 35.0839C40.9304 33.5658 35.6082 33.9092 33.1233 34.2706C31.316 35.3548 27.6474 38.1466 27.4306 40.6405C27.1595 43.758 27.9727 43.758 29.4637 44.8423C30.0058 46.035 35.4274 45.52 35.4274 45.52C35.4274 45.52 38.328 46.2248 42.34 42.5381C47.355 37.9297 44.102 36.9814 42.34 35.0839Z" fill="#1C3965" stroke="#1C3965"/>
<path d="M26.3447 58.1227C20.0318 57.2872 22.2767 52.8815 24.9812 49.8734C25.8145 48.9466 27.0494 48.552 28.266 48.2816C29.1576 48.0834 29.7334 47.8217 29.7334 47.8217C34.2063 46.0741 33.7997 47.2795 36.5105 48.4994C38.6791 49.4753 38.2273 52.1589 37.7303 53.3788C37.0074 55.3667 33.7181 59.0986 26.3447 58.1227Z" fill="#EDEEEF" stroke="white"/>
<path d="M9.13694 31.8377C11.8478 29.254 14.7393 31.5214 15.914 33.0576C16.682 34.0516 18.4892 36.338 19.5735 37.5307C20.9289 39.0217 20.5223 39.4283 19.5735 40.5126C18.8145 41.3801 18.6248 43.7656 18.6248 44.8499C18.6248 46.2053 17.0796 46.7746 14.6941 45.7987C12.3086 44.8228 9.99536 41.6873 9.13694 40.2415C9.13694 40.2415 8.59152 35.4885 9.13694 31.8377Z" fill="#1C3965" stroke="#1C3965"/>
<path d="M27.0961 20.3292C21.3463 7.0871 18.2155 17.0439 18.2155 23.5624C18.0821 26.0021 20.9263 31.2852 22.2817 32.0984C23.6371 32.9116 24.9925 28.0322 26.3479 26.9479C27.2648 26.2144 27.471 23.6862 27.4581 21.9674C27.454 21.4078 27.319 20.8426 27.0961 20.3292Z" fill="#1C3965" stroke="#1C3965"/>
<path d="M39.6292 5.26491C37.3521 9.2769 39.3129 13.3521 40.578 14.8883C45.864 16.5144 48.3039 10.0092 49.7948 9.73811C51.2858 9.46703 50.337 5.80745 50.4725 4.18096C50.5809 2.87977 49.0719 1.56027 48.3039 1.06316C46.3611 0.792079 41.9063 1.25292 39.6292 5.26491Z" fill="#1C3965" stroke="#1C3965"/>
<path d="M34.6143 30.0659C32.771 28.6563 34.2077 26.8582 35.1565 26.1353C36.5767 23.56 39.9003 20.5781 43.2888 20.5781C46.6773 20.5781 47.2195 20.8492 47.8972 23.56C48.5749 26.2708 43.6955 30.0659 41.9334 30.7436C40.1714 31.4213 36.9185 31.828 34.6143 30.0659Z" fill="#1C3965" stroke="#1C3965"/>
<path d="M35.4912 8.07506C31.6242 0.630781 27.6374 4.89969 26.0755 8.11031C25.8496 10.0985 25.6417 14.373 26.6176 15.5658C27.8375 17.0567 27.2953 16.2435 29.7351 18.141C31.6868 19.6591 34.3434 18.0507 35.4277 17.0567C35.9086 16.3354 35.963 13.0549 35.9691 10.1467C35.9706 9.42978 35.8217 8.71124 35.4912 8.07506Z" fill="#EDEEEF" stroke="white"/>
</svg>
