<svg width="55" height="56" viewBox="0 0 55 56" fill="none" xmlns="http://www.w3.org/2000/svg">
<path d="M35.5214 2.26556C31.7437 -1.83759 24.2608 0.555916 20.9916 2.26556C20.3866 3.60879 17.5781 6.58834 11.185 7.76067C3.19366 9.22608 3.91915 17.6522 1.73969 23.1475C-0.0038873 27.5437 1.73969 32.5505 2.82942 34.5044C16.0273 47.571 28.983 69.308 51.8674 42.5642C61.3118 11.4242 40.2436 7.3945 35.5214 2.26556Z" fill="#F6F8FD"/>
<path d="M14.6242 39C18.7987 41.1766 25.6449 46.6981 19.6336 51.372C16.3516 53.9238 14.9113 55.1575 14.4158 55.6772C14.4866 55.7339 14.5562 55.7881 14.6242 55.8397C14.2451 56.0477 14.0037 56.1093 14.4158 55.6772C12.1264 53.8448 8.46829 49.3759 10.6896 44.8423C12.9796 40.1685 14.2668 39 14.6242 39Z" fill="#1C3965"/>
<path d="M31.5057 34C27.1599 28.9619 25.3746 17.3086 52.9997 11C59.3416 19.2143 50.1808 23.7048 31.5057 34Z" fill="#EDEEEF"/>
<path d="M0.266978 18.828C1.14144 13.8731 8.40437 6.21147 11.9265 3C12.534 6.32616 13.5303 14.2172 12.6558 19.172C11.7814 24.1269 5.00387 31.7885 1.72442 35C0.874246 31.6738 -0.607488 23.7828 0.266978 18.828Z" fill="#1C3965"/>
</svg>
