<svg width="97" height="63" viewBox="0 0 97 63" fill="none" xmlns="http://www.w3.org/2000/svg">
<path d="M8.25308 40.4385C-1.21302 37.57 0.00609654 42.8289 1.79892 45.817C3.23274 48.805 7.24779 53.9923 11.8374 50.8369C14.5869 48.566 13.9888 43.3071 8.25308 40.4385Z" fill="white"/>
<path d="M50.5639 14.9847C39.0898 6.09229 38.3727 13.1919 39.4484 17.8532C39.807 20.8419 41.7432 26.3891 46.6197 24.668C51.4962 22.9469 51.281 17.4953 50.5639 14.9847Z" fill="white"/>
<path d="M27.9735 8.17208C21.376 6.16412 19.7266 9.72586 19.7266 11.7577C21.7345 22.3713 26.0612 20.7218 27.9735 18.5704C33.1369 11.6859 30.1249 8.76966 27.9735 8.17208Z" fill="white"/>
<path d="M7.53536 27.534C2.65888 29.8288 2.63497 24.1874 3.23258 21.0799C3.94937 20.3626 5.02574 20.3627 5.74287 18.5699C6.46 16.7771 10.4042 16.06 12.197 18.5699C13.9899 21.0799 13.631 24.6655 7.53536 27.534Z" fill="white"/>
<path d="M17.5737 31.8375C21.8765 22.6583 25.3426 28.73 26.5378 32.9132C28.1322 36.3576 24.8117 39.1274 22.9522 40.0819C18.8433 39.7246 19.2859 37.5878 19.0092 35.4205C18.8416 34.1078 16.4997 35.4205 17.5737 31.8375Z" fill="white"/>
<path d="M21.8774 56.9392C21.1603 54.3098 20.8735 50.0548 25.4631 54.0707C26.5384 55.9831 27.3267 59.234 21.8774 56.9392Z" fill="white"/>
<path d="M42.3154 34.702C38.0126 28.1044 34.5465 31.4749 33.3512 33.9849C31.6301 38.2871 33.3512 40.7979 34.4269 41.5155C41.3114 41.8023 42.5544 37.0927 42.3154 34.702Z" fill="white"/>
<path d="M35.5034 60.5215C31.7743 59.0872 35.6229 54.1868 38.0133 51.9159C42.3156 48.3303 41.9581 44.0275 45.5437 47.2546C49.1294 50.4817 44.8266 60.5215 43.3924 61.5972C41.9581 62.6729 40.1647 62.3143 35.5034 60.5215Z" fill="#1C3965"/>
<path d="M65.6227 50.8394C61.6068 46.8235 57.4952 49.8832 55.9414 51.9151C54.0291 54.7843 52.2841 60.2359 60.6028 59.0885C68.9215 57.9411 67.4155 53.111 65.6227 50.8394Z" fill="white"/>
<path d="M84.2695 40.0789C78.5325 33.7681 76.1421 38.4056 75.664 41.5131C75.664 43.6628 72.4369 50.8375 79.9668 48.3275C85.9907 46.3196 85.3452 41.9918 84.2695 40.0789Z" fill="white"/>
<path d="M53.0728 7.45194C51.6386 0.280644 61.7979 -0.0779204 67.0568 0.639209C69.0648 5.22778 65.503 9.72329 63.4712 11.3975C60.6027 13.0703 54.5071 14.6232 53.0728 7.45194Z" fill="white"/>
<path d="M81.3994 6.37757C79.3915 3.7959 74.8257 10.7999 72.7939 14.6246C71.3596 17.1208 73.8696 22.513 77.8138 24.3058C80.9691 25.7401 84.1484 23.2301 85.3436 21.7958C87.1365 9.96321 83.9094 9.60465 81.3994 6.37757Z" fill="white"/>
<path d="M67.774 24.3058C64.3317 19.1425 62.0369 22.8715 61.3198 25.3815C60.7461 28.25 62.515 29.6843 63.4712 30.0428C68.3477 30.3297 68.3716 26.3377 67.774 24.3058Z" fill="white"/>
<path d="M94.6663 25.3815C91.5109 21.3656 89.0488 24.4253 88.2121 26.4572C86.2042 27.3177 86.4193 29.9233 86.7779 31.1185C88.9293 35.0627 92.5149 33.987 94.6663 33.2699C96.8177 32.5528 98.6105 30.4014 94.6663 25.3815Z" fill="white"/>
<path d="M55.9413 44.0231C51.9254 44.0231 52.3556 40.9155 53.0728 39.3617C55.3665 33.3379 58.0931 35.8956 59.1697 37.9275C59.7669 39.9593 59.9572 44.0231 55.9413 44.0231Z" fill="#1C3965"/>
</svg>
