<svg width="97" height="62" viewBox="0 0 97 62" fill="none" xmlns="http://www.w3.org/2000/svg">
<path d="M8.25308 40.0557C-1.21302 37.1872 0.00609654 42.4461 1.79892 45.4342C3.23274 48.4222 7.24779 53.6095 11.8374 50.4541C14.5869 48.1832 13.9888 42.9243 8.25308 40.0557Z" fill="white"/>
<path d="M50.5639 14.6019C39.0898 5.70948 38.3727 12.8091 39.4484 17.4704C39.807 20.4591 41.7432 26.0063 46.6197 24.2852C51.4962 22.564 51.281 17.1125 50.5639 14.6019Z" fill="white"/>
<path d="M27.9735 7.78927C21.376 5.7813 19.7266 9.34305 19.7266 11.3749C21.7345 21.9885 26.0612 20.339 27.9735 18.1876C33.1369 11.3031 30.1249 8.38685 27.9735 7.78927Z" fill="white"/>
<path d="M7.53536 27.1512C2.65888 29.446 2.63497 23.8046 3.23258 20.697C3.94937 19.9798 5.02574 19.9799 5.74287 18.1871C6.46 16.3943 10.4042 15.6771 12.197 18.1871C13.9899 20.697 13.631 24.2827 7.53536 27.1512Z" fill="white"/>
<path d="M17.5737 31.4547C21.8765 22.2755 25.3426 28.3471 26.5378 32.5304C28.1322 35.9747 24.8117 38.7446 22.9522 39.699C18.8433 39.3417 19.2859 37.205 19.0092 35.0377C18.8416 33.725 16.4997 35.0377 17.5737 31.4547Z" fill="white"/>
<path d="M21.8774 56.5564C21.1603 53.9269 20.8735 49.672 25.4631 53.6879C26.5384 55.6002 27.3267 58.8512 21.8774 56.5564Z" fill="white"/>
<path d="M42.3154 34.3192C38.0126 27.7216 34.5465 31.0921 33.3512 33.6021C31.6301 37.9043 33.3512 40.415 34.4269 41.1327C41.3114 41.4195 42.5544 36.7099 42.3154 34.3192Z" fill="white"/>
<path d="M35.5034 60.1387C31.7743 58.7044 35.6229 53.804 38.0133 51.5331C42.3156 47.9475 41.9581 43.6447 45.5437 46.8718C49.1294 50.0988 44.8266 60.1387 43.3924 61.2144C41.9581 62.29 40.1647 61.9315 35.5034 60.1387Z" fill="#FFB924"/>
<path d="M65.6227 50.4566C61.6068 46.4407 57.4952 49.5004 55.9414 51.5323C54.0291 54.4015 52.2841 59.8531 60.6028 58.7057C68.9215 57.5583 67.4155 52.7282 65.6227 50.4566Z" fill="white"/>
<path d="M84.2695 39.696C78.5325 33.3853 76.1421 38.0227 75.664 41.1303C75.664 43.28 72.4369 50.4547 79.9668 47.9447C85.9907 45.9368 85.3452 41.609 84.2695 39.696Z" fill="white"/>
<path d="M53.0728 7.06913C51.6386 -0.102168 61.7979 -0.460733 67.0568 0.256396C69.0648 4.84497 65.503 9.34048 63.4712 11.0147C60.6027 12.6875 54.5071 14.2404 53.0728 7.06913Z" fill="white"/>
<path d="M81.3994 5.99475C79.3915 3.41309 74.8257 10.4171 72.7939 14.2417C71.3596 16.738 73.8696 22.1302 77.8138 23.923C80.9691 25.3572 84.1484 22.8473 85.3436 21.413C87.1365 9.5804 83.9094 9.22184 81.3994 5.99475Z" fill="white"/>
<path d="M67.774 23.923C64.3317 18.7597 62.0369 22.4887 61.3198 24.9987C60.7461 27.8672 62.515 29.3015 63.4712 29.66C68.3477 29.9469 68.3716 25.9549 67.774 23.923Z" fill="white"/>
<path d="M94.6663 24.9987C91.5109 20.9828 89.0488 24.0425 88.2121 26.0744C86.2042 26.9349 86.4193 29.5405 86.7779 30.7357C88.9293 34.6799 92.5149 33.6042 94.6663 32.8871C96.8177 32.17 98.6105 30.0186 94.6663 24.9987Z" fill="white"/>
<path d="M55.9413 43.6403C51.9254 43.6403 52.3556 40.5327 53.0728 38.9789C55.3665 32.955 58.0931 35.5128 59.1697 37.5447C59.7669 39.5765 59.9572 43.6403 55.9413 43.6403Z" fill="white"/>
</svg>
