<svg width="172" height="214" viewBox="0 0 172 214" fill="none" xmlns="http://www.w3.org/2000/svg">
<path d="M128.167 59.2243C133.365 54.7689 130.333 49.9423 128.167 48.0859C125.382 49.9423 114.244 65.2575 113.316 71.2908C112.574 76.1174 105.581 84.7496 102.178 88.4624C96.9797 91.8039 89.8018 106.562 86.8627 113.524C83.9234 120.794 77.0238 136.728 72.9396 142.298C68.8554 147.867 67.5252 156.066 67.3706 159.469C61.9561 168.596 51.22 188.058 51.5913 192.884C51.9626 197.711 45.8674 205.724 42.7734 209.128L46.4862 212.376C49.2707 210.056 54.747 203.93 54.3757 197.989C54.0044 192.049 59.4808 181.901 62.2653 177.569C64.8952 173.083 70.7119 161.883 72.9396 152.972C75.1672 144.061 81.6027 133.789 84.542 129.767L102.178 100.065C105.736 92.6392 113.78 77.4169 117.493 75.9318C122.134 74.0754 121.67 64.7934 128.167 59.2243Z" fill="white" stroke="white"/>
<path d="M15.3863 139.97C4.99051 138.856 3.31976 149.716 3.78386 155.285C0.0711073 155.285 0.0729872 165.032 3.78386 177.098C13.2031 195.544 22.9549 196.732 28.2663 196.097C29.8155 195.912 31.1522 194.844 31.5438 193.334C32.7023 188.866 30.6232 186.523 33.022 184.524C38.9625 181.182 38.2818 174.778 37.1989 171.993C34.2596 161.783 25.7821 141.084 15.3863 139.97Z" fill="white" stroke="white"/>
<path d="M142.554 117.704C137.727 112.506 119.504 113.682 110.995 114.92C104.807 118.632 92.2456 128.191 91.503 136.731C90.5748 147.405 93.3594 147.405 98.4645 151.118C100.321 155.202 118.885 153.438 118.885 153.438C118.885 153.438 128.816 155.851 142.554 143.228C159.725 127.449 148.587 124.202 142.554 117.704Z" fill="white" stroke="white"/>
<mask id="mask0_892_46942" style="mask-type:alpha" maskUnits="userSpaceOnUse" x="48" y="154" width="87" height="38">
<rect x="48" y="154" width="87" height="38" rx="12" fill="#F6F8FD"/>
</mask>
<g mask="url(#mask0_892_46942)">
<path d="M87.7839 196.6C63.6466 193.406 76.047 174.968 86.3762 164.972C87.2719 164.105 88.4771 163.667 89.7205 163.582C95.2683 163.201 99.3872 161.329 99.3872 161.329C114.702 155.345 113.31 159.472 122.592 163.649C130.018 166.991 128.471 176.18 126.769 180.357C124.293 187.164 113.031 199.942 87.7839 196.6Z" fill="#FFB924" stroke="#FFB924"/>
</g>
<path d="M28.8554 106.605C38.1376 97.7578 48.0381 105.522 52.0603 110.781C54.6901 114.185 60.8781 122.014 64.5909 126.098C69.2319 131.203 67.8396 132.595 64.5909 136.308C61.9919 139.278 61.3422 147.446 61.3422 151.159C61.3422 155.8 56.0515 157.749 47.8834 154.408C39.7153 151.066 31.7947 140.33 28.8554 135.38C28.8554 135.38 26.9879 119.105 28.8554 106.605Z" fill="white" stroke="white"/>
<path d="M91.1656 69.1045C70.9606 20.9234 59.9452 55.6456 59.9452 78.2703C59.4886 86.624 69.2271 104.713 73.8681 107.498C78.5091 110.283 83.1501 93.5751 87.791 89.8623C91.3213 87.038 91.7746 76.4434 91.5446 70.7571C91.522 70.1979 91.3821 69.6206 91.1656 69.1045Z" fill="#FFB924" stroke="#FFB924"/>
<path d="M133.275 15.6033C125.478 29.3405 132.192 43.2944 136.524 48.5542C154.623 54.122 162.978 31.8479 168.083 30.9198C173.188 29.9916 169.939 17.4609 170.403 11.8918C170.774 7.43644 165.607 2.91838 162.978 1.21626C156.325 0.288068 141.072 1.866 133.275 15.6033Z" fill="white" stroke="white"/>
<path d="M116.094 100.541C109.782 95.7149 114.702 89.5578 117.951 87.0827C122.813 78.2648 134.194 68.0547 145.796 68.0547C157.399 68.0547 159.255 68.9829 161.575 78.2648C163.896 87.5468 147.188 100.541 141.155 102.862C135.122 105.182 123.984 106.575 116.094 100.541Z" fill="white" stroke="white"/>
<path d="M120.27 27.5924C106.672 -1.1197 92.3668 14.0377 86.8611 25.3549C86.0876 32.1625 85.376 46.7988 88.7175 50.8828C92.8944 55.9879 91.038 53.2033 99.3917 59.7007C106.075 64.8985 115.171 59.3913 118.884 55.9879C120.678 53.2969 120.738 40.204 120.74 29.691C120.74 28.9741 120.577 28.2403 120.27 27.5924Z" fill="white" stroke="white"/>
</svg>
