<svg width="32" height="32" viewBox="0 0 32 32" fill="none" xmlns="http://www.w3.org/2000/svg">
<path fill-rule="evenodd" clip-rule="evenodd" d="M19.9532 19.0065H21.0065L27.6598 25.6732L25.6732 27.6598L19.0065 21.0065V19.9532L18.6465 19.5798C17.1265 20.8865 15.1532 21.6732 13.0065 21.6732C8.21984 21.6732 4.33984 17.7932 4.33984 13.0065C4.33984 8.21984 8.21984 4.33984 13.0065 4.33984C17.7932 4.33984 21.6732 8.21984 21.6732 13.0065C21.6732 15.1532 20.8865 17.1265 19.5798 18.6465L19.9532 19.0065ZM7.00651 13.0065C7.00651 16.3265 9.68651 19.0065 13.0065 19.0065C16.3265 19.0065 19.0065 16.3265 19.0065 13.0065C19.0065 9.68651 16.3265 7.00651 13.0065 7.00651C9.68651 7.00651 7.00651 9.68651 7.00651 13.0065Z" fill="#1C3965"/>
</svg>
