<svg width="218" height="206" viewBox="0 0 218 206" fill="none" xmlns="http://www.w3.org/2000/svg">
<mask id="mask0_892_46968" style="mask-type:alpha" maskUnits="userSpaceOnUse" x="0" y="84" width="139" height="122">
<rect y="84" width="139" height="122" rx="12" fill="#F6F8FD"/>
</mask>
<g mask="url(#mask0_892_46968)">
<path d="M128.293 153.208C96.9801 150.883 75.4529 116.731 68.6033 99.9453C57.6439 136.357 21.6347 153.208 5 157.081C47.076 164.829 63.7107 208.407 74.4743 220.996C79.1712 219.447 82.3024 199.691 90.1305 180.323C100.894 167.734 128.293 162.892 128.293 153.208Z" fill="#1C3965"/>
</g>
<path d="M178.583 84C180.845 103.425 153.137 113.519 139 116.137C166.567 121.851 183.531 131.849 185.651 164.701C187.348 152.131 207.563 129.468 217.459 119.708C195.547 113.281 185.651 89.7133 178.583 84Z" fill="white"/>
<mask id="mask1_892_46968" style="mask-type:alpha" maskUnits="userSpaceOnUse" x="164" y="0" width="38" height="72">
<rect x="164" width="38" height="72" rx="12" fill="#F6F8FD"/>
</mask>
<g mask="url(#mask1_892_46968)">
<path d="M192.047 10.2734C186.787 29.0194 174.251 34.0691 168.641 34.2508C187.576 41.8799 192.134 54.3227 192.047 59.5904C192.397 52.8695 197.622 38.3923 215.716 34.2508C202.566 30.7087 193.362 26.8941 192.047 10.2734Z" fill="#1C3965"/>
</g>
</svg>
