<svg width="32" height="32" viewBox="0 0 32 32" fill="none" xmlns="http://www.w3.org/2000/svg">
<path fill-rule="evenodd" clip-rule="evenodd" d="M14.6667 3.42578H17.3333V10.0924H14.6667V3.42578ZM26.3333 7.22578L28.2133 9.10578C28.0667 9.14578 23.4667 13.8391 23.4667 13.8391L21.5867 11.9591L26.3333 7.22578ZM16 16.7591C22.0533 16.7591 27.5467 19.1324 31.6133 22.9858C31.8533 23.2258 32 23.5591 32 23.9191C32 24.2924 31.8533 24.6258 31.6133 24.8658L28.3067 28.1724C28.0667 28.4124 27.7333 28.5591 27.36 28.5591C27 28.5591 26.6667 28.4258 26.4267 28.1858C25.3733 27.2124 24.1867 26.3724 22.88 25.7191C22.44 25.5058 22.1333 25.0391 22.1333 24.5191V20.3858C20.2 19.7591 18.1333 19.4258 16 19.4258C13.8667 19.4258 11.8 19.7591 9.86667 20.3991V24.5324C9.86667 25.0658 9.56 25.5191 9.12 25.7324C7.82667 26.3858 6.62667 27.2124 5.57333 28.1991C5.33333 28.4258 5 28.5724 4.64 28.5724C4.26667 28.5724 3.93333 28.4258 3.69333 28.1858L0.386667 24.8791C0.146667 24.6391 0 24.3058 0 23.9324C0 23.5591 0.146667 23.2258 0.386667 22.9858C4.45333 19.1324 9.94667 16.7591 16 16.7591ZM4.70667 25.4258C5.48 24.7991 6.32 24.2258 7.2 23.7324H7.21333V21.4658C5.81333 22.1458 4.49333 22.9991 3.28 23.9991L4.70667 25.4258ZM27.2933 25.4124C26.5067 24.7724 25.68 24.2125 24.8 23.7191V21.4524C26.1867 22.1325 27.5067 22.9858 28.72 23.9858L27.2933 25.4124ZM10.4133 11.9591L8.53333 13.8391C8.53333 13.8391 3.93333 9.14578 3.78667 9.10578L5.68 7.21245L10.4133 11.9591Z" fill="#FFB924"/>
</svg>
