<svg width="77" height="59" viewBox="0 0 77 59" fill="none" xmlns="http://www.w3.org/2000/svg">
<path d="M51.377 44.638C41.0409 70.0921 20.5674 53.4066 11.6227 41.8821C5.91091 32.8627 -3.28479 14.0729 1.18724 8.05994C10.927 1.04502 24.1287 26.3488 29.5121 39.8776C26.5306 27.6015 19.0766 2.79875 24.7913 1.04522C32.3446 -0.15734 38.0427 22.9251 39.9476 34.6166C40.1133 30.6916 40.3452 21.0879 39.9476 14.0729C39.5501 7.05801 41.7697 4.97023 42.9292 4.80321C47.8985 7.55908 56.5947 20.3363 51.377 44.638Z" fill="#FFB924"/>
<path d="M57.1074 44.638C46.7713 70.0921 26.2979 53.4066 17.3532 41.8821C11.6414 32.8627 2.44568 14.0729 6.91771 8.05994C16.6575 1.04502 29.8592 26.3488 35.2426 39.8776C32.261 27.6015 24.8071 2.79875 30.5218 1.04522C38.0751 -0.15734 43.7732 22.9251 45.6781 34.6166C45.8437 30.6916 46.0756 21.0879 45.6781 14.0729C45.2806 7.05801 47.5002 4.97023 48.6597 4.80321C53.629 7.55908 62.3252 20.3363 57.1074 44.638Z" stroke="#1C3965" stroke-width="0.7"/>
<path d="M10.6242 33C14.7987 35.1766 21.6449 40.6981 15.6336 45.372C12.3516 47.9238 10.9113 49.1575 10.4158 49.6772C10.4866 49.7339 10.5562 49.7881 10.6242 49.8397C10.2451 50.0477 10.0037 50.1093 10.4158 49.6772C8.12641 47.8448 4.46829 43.3759 6.68957 38.8423C8.9796 34.1685 10.2668 33 10.6242 33Z" fill="#FE6534"/>
<path d="M57.3164 35.5844C62.2762 34.7383 71.937 38.995 76.1474 41.2291C73.2204 42.9218 66.1265 46.5187 61.1668 47.3648C56.207 48.211 46.7097 44.4113 42.5811 42.4056C45.4263 40.4845 52.3567 36.4306 57.3164 35.5844Z" fill="white"/>
</svg>
