<svg width="70" height="57" viewBox="0 0 70 57" fill="none" xmlns="http://www.w3.org/2000/svg">
<path d="M34.5214 3.26556C30.7437 -0.83759 23.2608 1.55592 19.9916 3.26556C19.3866 4.60879 16.5781 7.58834 10.185 8.76067C2.19366 10.2261 2.91915 18.6522 0.739685 24.1475C-1.00389 28.5437 0.739686 33.5505 1.82942 35.5044C15.0273 48.571 27.983 70.308 50.8674 43.5642C60.3118 12.4242 39.2436 8.3945 34.5214 3.26556Z" fill="#FFB924"/>
<path d="M40.248 3.26556C36.4702 -0.83759 28.9874 1.55592 25.7182 3.26556C25.1131 4.60879 22.3047 7.58834 15.9116 8.76067C7.92022 10.2261 8.64571 18.6522 6.46625 24.1475C4.72268 28.5437 6.46625 33.5505 7.55598 35.5044C20.7539 48.571 33.7096 70.308 56.594 43.5642C66.0383 12.4242 44.9701 8.3945 40.248 3.26556Z" stroke="#1C3965" stroke-width="0.7"/>
<path d="M46.5057 40C42.1599 34.9619 40.3746 23.3086 67.9997 17C74.3416 25.2143 65.1808 29.7048 46.5057 40Z" fill="white"/>
</svg>
