<svg width="65" height="60" viewBox="0 0 65 60" fill="none" xmlns="http://www.w3.org/2000/svg">
<path d="M47.2161 1.22859L54.4205 51.3232L8.0154 59.144C0.387157 49.6324 -1.94369 36.1047 1.65853 35.4706C5.26076 34.8365 12.6771 39.9093 16.915 18.9837C20.3053 2.24317 38.5284 0.171742 47.2161 1.22859Z" fill="#FFB924"/>
<path d="M52.9465 1.22859L60.151 51.3232L13.7459 59.144C6.11763 49.6324 3.78678 36.1047 7.389 35.4706C10.9912 34.8365 18.4076 39.9093 22.6455 18.9837C26.0358 2.24317 44.2588 0.171742 52.9465 1.22859Z" stroke="#1C3965" stroke-width="0.7"/>
<path d="M52.267 21.828C53.1414 16.8731 60.4044 9.21147 63.9265 6C64.534 9.32616 65.5303 17.2172 64.6558 22.172C63.7814 27.1269 57.0039 34.7885 53.7244 38C52.8742 34.6738 51.3925 26.7828 52.267 21.828Z" fill="#FE6534"/>
</svg>
