<svg width="81" height="57" viewBox="0 0 81 57" fill="none" xmlns="http://www.w3.org/2000/svg">
<path d="M51.377 43.638C41.0409 69.0921 20.5674 52.4066 11.6227 40.8821C5.91091 31.8627 -3.28479 13.0729 1.18724 7.05994C10.927 0.0450176 24.1287 25.3488 29.5121 38.8776C26.5306 26.6015 19.0766 1.79875 24.7913 0.0452185C32.3446 -1.15734 38.0427 21.9251 39.9476 33.6166C40.1133 29.6916 40.3452 20.0879 39.9476 13.0729C39.5501 6.05801 41.7697 3.97023 42.9292 3.80321C47.8985 6.55908 56.5947 19.3363 51.377 43.638Z" fill="#F6F8FD"/>
<path d="M6.89177 38.4502C-1.01292 36.0548 0.00511107 40.4463 1.50221 42.9415C2.69953 45.4367 6.0523 49.7683 9.88488 47.1334C12.1808 45.2371 11.6814 40.8456 6.89177 38.4502Z" fill="#EDEEEF"/>
<path d="M42.2221 17.1899C32.6406 9.76425 32.0418 15.6928 32.94 19.5852C33.2395 22.081 34.8563 26.7131 38.9284 25.2759C43.0006 23.8387 42.8209 19.2864 42.2221 17.1899Z" fill="#1C3965"/>
<path d="M23.3593 11.5038C17.85 9.82704 16.4727 12.8013 16.4727 14.498C18.1494 23.3609 21.7624 21.9835 23.3593 20.1869C27.671 14.438 25.1558 12.0028 23.3593 11.5038Z" fill="#1C3965"/>
<path d="M6.29155 27.6702C2.21943 29.5865 2.19947 24.8757 2.69851 22.2807C3.29707 21.6817 4.19589 21.6818 4.79473 20.1847C5.39357 18.6876 8.68719 18.0888 10.1843 20.1847C11.6814 22.2807 11.3817 25.2749 6.29155 27.6702Z" fill="#1C3965"/>
<path d="M14.6758 31.2648C18.2689 23.5996 21.1633 28.6698 22.1613 32.163C23.4927 35.0392 20.72 37.3522 19.1671 38.1492C15.736 37.8509 16.1056 36.0665 15.8745 34.2568C15.7346 33.1606 13.779 34.2568 14.6758 31.2648Z" fill="#EDEEEF"/>
<path d="M18.2687 52.2253C17.6699 50.0296 17.4303 46.4765 21.2629 49.83C22.1608 51.4269 22.8191 54.1416 18.2687 52.2253Z" fill="#1C3965"/>
<path d="M35.3335 33.6619C31.7405 28.1526 28.8461 30.9672 27.848 33.0631C26.4108 36.6557 27.848 38.7523 28.7463 39.3515C34.4951 39.591 35.5331 35.6583 35.3335 33.6619Z" fill="#1C3965"/>
<path d="M29.6455 55.2158C26.5315 54.0181 29.7453 49.9261 31.7414 48.0297C35.334 45.0355 35.0355 41.4425 38.0297 44.1373C41.0239 46.8321 37.4308 55.2158 36.2332 56.1141C35.0355 57.0123 33.5379 56.7129 29.6455 55.2158Z" fill="#1C3965"/>
<path d="M54.7971 47.1326C51.4435 43.7791 48.0102 46.3341 46.7127 48.0308C45.1158 50.4268 43.6586 54.9791 50.6052 54.021C57.5517 53.0628 56.2942 49.0295 54.7971 47.1326Z" fill="#1C3965"/>
<path d="M70.3695 38.1466C65.5788 32.8768 63.5826 36.7493 63.1834 39.3443C63.1834 41.1394 60.4886 47.1306 66.7765 45.0347C71.8067 43.3579 71.2677 39.744 70.3695 38.1466Z" fill="#1C3965"/>
<path d="M44.3177 10.9031C43.1201 4.91468 51.6036 4.61526 55.9951 5.2141C57.6719 9.0458 54.6976 12.7998 53.0009 14.1978C50.6056 15.5947 45.5154 16.8915 44.3177 10.9031Z" fill="#1C3965"/>
<path d="M67.9719 10.0059C66.2952 7.8501 62.4826 13.6988 60.7858 16.8926C59.5882 18.9771 61.6841 23.4798 64.9777 24.9769C67.6126 26.1746 70.2675 24.0787 71.2655 22.881C72.7626 13.0001 70.0679 12.7007 67.9719 10.0059Z" fill="#1C3965"/>
<path d="M56.594 24.9769C53.7195 20.6653 51.8032 23.7792 51.2044 25.8752C50.7253 28.2705 52.2025 29.4682 53.0009 29.7676C57.073 30.0072 57.093 26.6736 56.594 24.9769Z" fill="#1C3965"/>
<path d="M79.0505 25.8752C76.4156 22.5217 74.3596 25.0767 73.6609 26.7734C71.9842 27.4921 72.1638 29.6678 72.4632 30.6659C74.2597 33.9595 77.2539 33.0613 79.0505 32.4624C80.847 31.8636 82.3441 30.0671 79.0505 25.8752Z" fill="#1C3965"/>
<path d="M46.713 41.4477C43.3595 41.4477 43.7188 38.8528 44.3176 37.5553C46.233 32.525 48.5099 34.6609 49.4089 36.3576C49.9076 38.0543 50.0665 41.4477 46.713 41.4477Z" fill="#1C3965"/>
</svg>
