<svg width="108" height="69" viewBox="0 0 108 69" fill="none" xmlns="http://www.w3.org/2000/svg">
<path d="M1.12262 17.5865C0.298624 41.4824 3.25512 81.3801 21.4965 52.1086C21.8992 51.4623 22.1891 50.6878 22.3083 49.9357C27.4945 17.2216 22.0708 1.68839 17.6211 10.5865C16.1211 20.5849 24.6211 60.0849 35.6211 60.0849C40.4544 58.2516 48.2211 46.1849 40.6211 12.5849C33.6211 12.5849 39.1211 58.0849 55.6211 67.0849C72.1211 76.0849 75.1211 14.5849 67.6211 1.08489C60.6211 -1.41444 65.6211 52.0849 77.6211 55.0849C103.621 65.484 102.788 32.4186 99.1211 14.5859M99.1211 14.5859C99.1211 20.9859 95.4544 24.9193 93.6211 26.0859M99.1211 14.5859C100.321 17.7855 105.288 21.9191 107.621 23.5859" stroke="#1C3965"/>
</svg>
