<svg width="119" height="31" viewBox="0 0 119 31" fill="none" xmlns="http://www.w3.org/2000/svg">
<path d="M38.3102 24.9983C35.5903 24.9983 33.3587 24.181 31.6152 22.5463C29.8717 20.9116 29 18.7263 29 15.9904C29 13.3577 29.8892 11.1035 31.6675 9.22792C33.4459 7.35234 35.6252 6.41454 38.2056 6.41454C39.1122 6.41454 39.9926 6.50058 40.8469 6.67265C41.7012 6.84472 42.1371 6.93076 42.1545 6.93076C42.3986 6.93076 42.6689 6.85333 42.9652 6.69846C43.2616 6.52639 43.5406 6.44035 43.8021 6.44035C44.3949 6.44035 44.7785 6.88774 44.9528 7.78252C45.1446 8.67729 45.3538 9.95063 45.5805 11.6025C45.6851 12.5145 45.3887 12.9963 44.6913 13.0479C44.4821 13.0651 44.2816 13.0135 44.0898 12.8931C43.9154 12.7554 43.776 12.6263 43.6714 12.5059C43.5842 12.3854 43.375 12.1101 43.0437 11.68C42.294 10.5959 41.5792 9.78716 40.8992 9.25373C40.2193 8.72031 39.3475 8.44499 38.284 8.42779C36.9067 8.42779 35.8519 8.9354 35.1196 9.95063C34.4048 10.9486 34.0474 12.2908 34.0474 13.9771C34.0474 16.5926 34.5181 18.7005 35.4596 20.3008C36.4011 21.8838 37.7261 22.6754 39.4347 22.6754C39.9229 22.6754 40.3936 22.5463 40.8469 22.2882C41.3177 22.0301 41.553 21.6343 41.553 21.1009V19.7071C41.553 19.1221 41.4223 18.6661 41.1607 18.3391C40.8992 17.995 40.6028 17.7799 40.2716 17.6939C39.9577 17.6078 39.6614 17.4788 39.3824 17.3067C39.1209 17.1346 38.9901 16.9023 38.9901 16.6098C38.9901 16.2657 39.1034 16.0248 39.3301 15.8871C39.5567 15.7495 39.9752 15.6806 40.5854 15.6806L46.1297 15.6032C46.6527 15.6032 47.0275 15.672 47.2542 15.8097C47.4808 15.9473 47.5942 16.1882 47.5942 16.5324C47.5942 16.8249 47.4983 17.0744 47.3065 17.2809C47.1322 17.4874 46.9578 17.7713 46.7835 18.1327C46.6091 18.494 46.5219 19.0016 46.5219 19.6555V20.8428C46.5219 21.9096 45.7461 22.8732 44.1944 23.7336C42.6427 24.5768 40.6813 24.9983 38.3102 24.9983Z" fill="#FE6534"/>
<path d="M61.4789 20.1717C61.7927 19.8964 62.0543 19.862 62.2635 20.0685C62.4901 20.275 62.5337 20.5933 62.3942 21.0235C62.0979 21.9699 61.3569 22.8732 60.1713 23.7336C58.9857 24.5768 57.5648 24.9983 55.9085 24.9983C54.0081 24.9983 52.4739 24.4391 51.3057 23.3206C50.155 22.2022 49.5797 20.7309 49.5797 18.907C49.5797 16.9454 50.2771 15.3193 51.6719 14.0287C53.0666 12.7382 54.6619 12.0929 56.4577 12.0929C58.0617 12.0929 59.3257 12.5059 60.2498 13.3318C61.1738 14.1578 61.6969 15.173 61.8189 16.3775C61.8712 16.7905 61.6881 17.1174 61.2697 17.3583C59.1775 18.408 57.0418 19.3716 54.8624 20.2491C55.4901 21.2644 56.5274 21.772 57.9745 21.772C59.0904 21.772 60.2585 21.2386 61.4789 20.1717ZM54.9932 14.2868C54.2261 14.6138 53.8425 15.4311 53.8425 16.7389C53.8425 17.4444 53.9384 18.0122 54.1302 18.4424C55.0716 18.1154 55.987 17.7197 56.8761 17.2551C56.8936 17.2379 56.9372 17.2207 57.0069 17.2035C57.0766 17.1691 57.1202 17.1432 57.1377 17.126C57.1725 17.1088 57.2161 17.0916 57.2684 17.0744C57.3382 17.04 57.3818 17.0142 57.3992 16.997C57.4166 16.9626 57.4428 16.9282 57.4776 16.8937C57.5299 16.8421 57.5648 16.7991 57.5822 16.7647C57.5997 16.7303 57.6171 16.6873 57.6346 16.6356C57.652 16.584 57.6607 16.5324 57.6607 16.4808C57.6607 16.4119 57.652 16.3431 57.6346 16.2743C57.6346 16.1882 57.6171 16.1022 57.5822 16.0162C57.3207 15.3107 56.9546 14.7945 56.4839 14.4675C56.0131 14.1406 55.5162 14.0804 54.9932 14.2868Z" fill="#FE6534"/>
<path d="M66.3156 11.1895C65.7054 11.1895 65.226 11.0089 64.8773 10.6475C64.5286 10.2862 64.3542 9.84738 64.3542 9.33117C64.3368 8.60846 64.6593 7.92878 65.3219 7.29211C66.0018 6.65544 66.7515 6.33711 67.5709 6.33711C68.1637 6.3199 68.6606 6.49198 69.0616 6.85333C69.4626 7.21468 69.6718 7.67927 69.6893 8.24711C69.6893 9.03864 69.3406 9.72693 68.6432 10.312C67.9632 10.897 67.1874 11.1895 66.3156 11.1895ZM64.7988 20.9718L64.7727 16.6356C64.7727 16.3431 64.7116 16.085 64.5896 15.8613C64.4675 15.6376 64.3281 15.4741 64.1712 15.3709C64.0317 15.2504 63.9009 15.1128 63.7789 14.9579C63.6568 14.8031 63.5958 14.6396 63.5958 14.4675C63.5958 14.1062 63.8835 13.7964 64.4588 13.5383C64.9819 13.2974 65.7752 13.0049 66.8387 12.6608C67.9196 12.2994 68.5734 12.1187 68.8001 12.1187C69.2708 12.1187 69.5062 12.4457 69.5062 13.0995L69.48 16.6356V20.9718C69.48 21.5053 69.5498 21.9268 69.6893 22.2366C69.8287 22.5463 69.9769 22.7442 70.1338 22.8302C70.3082 22.9163 70.4651 23.0539 70.6046 23.2432C70.7441 23.4153 70.8138 23.6562 70.8138 23.9659C70.8138 24.4821 70.3954 24.7402 69.5585 24.7402H64.8511C63.9445 24.7402 63.4912 24.4649 63.4912 23.9143C63.4912 23.6218 63.5609 23.3895 63.7004 23.2174C63.8399 23.0453 63.9881 22.9163 64.145 22.8302C64.3019 22.7442 64.4501 22.5463 64.5896 22.2366C64.7291 21.9268 64.7988 21.5053 64.7988 20.9718Z" fill="#FE6534"/>
<path d="M74.3811 24.9983C74.1022 24.9983 73.8668 24.9123 73.675 24.7402C73.5007 24.5682 73.3089 24.2498 73.0997 23.7852C72.5592 22.5119 72.2454 21.6515 72.1582 21.2041C72.0361 20.5675 72.1669 20.1373 72.5505 19.9136C72.7771 19.7759 73.0212 19.7759 73.2827 19.9136C73.5443 20.0513 73.9104 20.318 74.3811 20.7137C75.0959 21.316 75.5928 21.729 75.8718 21.9527C76.1507 22.1591 76.5953 22.4259 77.2056 22.7528C77.8332 23.0625 78.4085 23.2174 78.9316 23.2174C79.4721 23.2174 79.7423 22.9679 79.7423 22.4689C79.7423 22.1075 79.4546 21.7462 78.8793 21.3848C78.3214 21.0063 77.3973 20.5245 76.1072 19.9394C75.0262 19.4576 74.1719 18.907 73.5443 18.2875C72.934 17.6681 72.6289 16.8679 72.6289 15.8871C72.6289 14.6654 73.0909 13.7276 74.015 13.0737C74.9565 12.4199 76.0113 12.0929 77.1794 12.0929C77.7547 12.0929 78.3998 12.1618 79.1147 12.2994C79.8295 12.4199 80.3002 12.4801 80.5269 12.4801C80.7535 12.4801 80.9802 12.4199 81.2068 12.2994C81.4509 12.1618 81.6688 12.0929 81.8606 12.0929C82.0873 12.0929 82.2791 12.1704 82.436 12.3252C82.5929 12.4629 82.8108 12.7726 83.0898 13.2544C83.3687 13.805 83.5867 14.2782 83.7436 14.674C84.04 15.4827 83.9528 16.0076 83.4821 16.2485C83.4123 16.2829 83.3426 16.3087 83.2729 16.3259C83.2205 16.3259 83.1595 16.3259 83.0898 16.3259C83.02 16.3087 82.959 16.3001 82.9067 16.3001C82.8544 16.3001 82.7847 16.2829 82.6975 16.2485C82.6278 16.1968 82.5667 16.1624 82.5144 16.1452C82.4796 16.1108 82.4098 16.0678 82.3052 16.0162C82.2006 15.9473 82.1222 15.8957 82.0699 15.8613C82.035 15.8269 81.9565 15.7753 81.8345 15.7064C81.7299 15.6204 81.6514 15.5602 81.5991 15.5258C80.03 14.4933 78.8706 13.9771 78.1209 13.9771C77.7722 13.9771 77.5194 14.0545 77.3625 14.2094C77.2056 14.3471 77.1271 14.5105 77.1271 14.6998C77.1271 15.0095 77.3363 15.3193 77.7547 15.629C78.1906 15.9215 78.9229 16.3087 79.9515 16.7905C81.5904 17.5476 82.7585 18.2359 83.4559 18.8554C84.1533 19.4748 84.502 20.2233 84.502 21.1009C84.502 22.3226 84.0051 23.2776 83.0113 23.9659C82.0175 24.6542 80.832 24.9983 79.4546 24.9983C78.4957 24.9983 77.5891 24.9123 76.7348 24.7402C75.8979 24.5509 75.4621 24.4563 75.4272 24.4563C75.3226 24.4563 75.1657 24.5509 74.9565 24.7402C74.7647 24.9123 74.5729 24.9983 74.3811 24.9983Z" fill="#FE6534"/>
<path d="M100.428 17.3067L101.422 21.5913C101.509 21.9355 101.631 22.228 101.788 22.4689C101.945 22.6926 102.093 22.856 102.233 22.9593C102.372 23.0453 102.494 23.1744 102.599 23.3464C102.721 23.5185 102.782 23.725 102.782 23.9659C102.782 24.2756 102.678 24.4821 102.468 24.5854C102.277 24.6886 101.963 24.7402 101.527 24.7402H97.0025C96.0959 24.7402 95.6426 24.4649 95.6426 23.9143C95.6426 23.6562 95.7559 23.4239 95.9826 23.2174C96.2092 22.9937 96.401 22.7356 96.5579 22.4431C96.7323 22.1505 96.7672 21.7548 96.6625 21.2558L95.7734 17.3841C95.4247 15.8011 94.7796 15.0009 93.8381 14.9837C93.3151 14.9837 92.8879 15.2074 92.5567 15.6548C92.2428 16.085 92.0859 16.6442 92.0859 17.3325V20.9718C92.0859 21.5053 92.1557 21.9268 92.2951 22.2366C92.4346 22.5463 92.5828 22.7442 92.7397 22.8302C92.8966 22.9163 93.0448 23.0539 93.1843 23.2432C93.3238 23.4153 93.3935 23.6562 93.3935 23.9659C93.3935 24.2756 93.2889 24.4821 93.0797 24.5854C92.8879 24.6886 92.5741 24.7402 92.1382 24.7402H87.4308C86.5242 24.7402 86.0709 24.4649 86.0709 23.9143C86.0709 23.6218 86.1407 23.3895 86.2801 23.2174C86.4196 23.0453 86.5678 22.9163 86.7247 22.8302C86.8991 22.7442 87.056 22.5463 87.1955 22.2366C87.3349 21.9268 87.4047 21.5053 87.4047 20.9718L87.3524 10.9314C87.3524 10.5529 87.2565 10.2431 87.0647 10.0022C86.8729 9.74414 86.6724 9.52905 86.4632 9.35698C86.2714 9.1677 86.1755 8.96981 86.1755 8.76333C86.1755 8.55684 86.2366 8.39337 86.3586 8.27292C86.4981 8.13527 86.7334 7.989 87.0647 7.83414C87.5703 7.59324 88.3549 7.30072 89.4184 6.95657C90.4994 6.59522 91.1619 6.41454 91.406 6.41454C91.8767 6.41454 92.1121 6.74148 92.1121 7.39535L92.0859 10.9314V13.3835C93.01 12.5231 94.1607 12.0929 95.538 12.0929C96.34 12.0929 97.0287 12.222 97.604 12.4801C98.1968 12.7382 98.6675 13.134 99.0162 13.6674C99.3824 14.2008 99.6613 14.7342 99.8531 15.2677C100.045 15.8011 100.237 16.4808 100.428 17.3067Z" fill="#FE6534"/>
<path d="M118.057 22.3656C118.197 22.3484 118.31 22.4 118.397 22.5205C118.484 22.6237 118.528 22.7528 118.528 22.9077C118.528 23.4411 118.171 23.9143 117.456 24.3273C116.758 24.7402 116.052 24.9467 115.337 24.9467C114.065 24.9467 113.193 24.3359 112.722 23.1141C111.484 24.3359 109.906 24.9467 107.989 24.9467C106.681 24.9467 105.591 24.6026 104.72 23.9143C103.848 23.226 103.412 22.3484 103.412 21.2816C103.412 20.0082 103.961 18.9758 105.06 18.1843C106.158 17.3755 107.727 16.9712 109.767 16.9712C109.872 16.9712 110.063 16.9798 110.342 16.997C110.621 17.0142 110.883 17.0228 111.127 17.0228C110.604 15.5086 109.689 14.7514 108.381 14.7514C107.579 14.7514 106.646 15.0612 105.583 15.6806C105.321 15.8699 105.077 15.8613 104.85 15.6548C104.624 15.4483 104.615 15.1644 104.824 14.8031C105.208 14.1148 105.896 13.4953 106.89 12.9447C107.901 12.3768 109.026 12.0929 110.264 12.0929C110.996 12.0929 111.65 12.2048 112.225 12.4285C112.801 12.6522 113.254 12.9017 113.585 13.177C113.916 13.4351 114.23 13.8222 114.527 14.3385C114.823 14.8547 115.024 15.2677 115.128 15.5774C115.25 15.8699 115.407 16.3087 115.599 16.8937L116.933 20.9718C117.037 21.316 117.124 21.5655 117.194 21.7204C117.264 21.8752 117.369 22.0301 117.508 22.185C117.665 22.3226 117.848 22.3828 118.057 22.3656ZM110.159 22.6495C110.752 22.6495 111.249 22.4947 111.65 22.185C112.068 21.858 112.225 21.4623 112.121 20.9977C112.068 20.774 111.885 20.2491 111.572 19.4232C111.38 18.8554 110.909 18.5714 110.159 18.5714C109.444 18.5714 108.869 18.7435 108.433 19.0877C107.997 19.4318 107.771 19.8792 107.753 20.4298C107.753 21.0665 107.98 21.5999 108.433 22.0301C108.887 22.4431 109.462 22.6495 110.159 22.6495Z" fill="#FE6534"/>
<path fill-rule="evenodd" clip-rule="evenodd" d="M8.10385 0.692568C7.11535 1.42649 6.65272 2.83466 6.89636 4.36821L7.09244 5.60282L4.34536 8.14158C-0.801616 12.8983 -1.44147 19.1923 2.77472 23.597L3.80847 24.6766L2.99371 25.1308C0.601945 26.4642 -0.572764 28.8864 0.367584 30.545C0.85052 31.3964 15.6884 30.9496 16.6363 30.055C17.1181 29.6003 16.2192 28.3739 15.1446 28.0202L14.3118 27.7465L15.307 26.9217C17.6236 25.0019 17.2941 22.675 14.2878 19.7237C11.4174 16.9062 11.0029 15.7234 12.3496 14.1915C12.7238 13.7658 13.1162 12.9982 13.2215 12.4854C13.4573 11.3382 13.891 10.8169 14.6094 10.8169C15.1272 10.8169 15.1333 10.8725 14.7188 11.8085C13.7973 13.8903 14.3307 16.8154 15.9854 18.7557C16.8156 19.7292 17.2701 19.2211 16.8498 17.7894C16.4104 16.2933 16.7195 12.982 17.3284 12.6604C17.6729 12.4783 18.2157 11.6952 18.1951 10.5394C18.18 9.68555 17.2269 8.76464 17.3284 8.14158C17.6605 6.10187 16.7607 4.86014 14.4319 5.18973L13.2102 5.36275L13.2375 3.55161C13.2819 0.602231 10.3929 -1.00687 8.10385 0.692568ZM10.388 7.80569C10.9382 7.80569 11.0894 7.94968 11.0894 8.47392C11.0894 8.84156 11.2199 9.21824 11.3794 9.31132C12.6551 10.0554 11.3542 11.1301 7.58407 12.4468C6.69304 12.7578 5.6677 13.3103 5.30543 13.6743L4.64672 14.336L5.41362 15.2851C5.83535 15.8071 6.56715 16.3853 7.03965 16.5701C7.51214 16.7549 7.89878 17.0631 7.89878 17.2555C7.89878 17.4477 8.29035 18.3076 8.76894 19.1663C10.6505 22.5422 8.22915 24.3755 5.24365 21.8354C1.50981 18.6585 2.19346 12.8643 6.65214 9.89824C7.33782 9.44217 7.89878 8.91684 7.89878 8.73069C7.89878 8.19633 8.80084 7.48486 9.26521 7.65294C9.49697 7.73698 10.0022 7.80569 10.388 7.80569Z" fill="#FE6534"/>
</svg>
