<svg width="24" height="24" viewBox="0 0 24 24" fill="none" xmlns="http://www.w3.org/2000/svg">
<g opacity="0.3">
<path d="M11.9336 7.06641C8.97065 7.06641 6.51562 9.4791 6.51562 12.4844C6.51562 15.4897 8.92832 17.9024 11.9336 17.9024C14.9389 17.9024 17.3516 15.4474 17.3516 12.4844C17.3516 9.52143 14.8966 7.06641 11.9336 7.06641ZM11.9336 15.9553C10.0289 15.9553 8.46272 14.3892 8.46272 12.4844C8.46272 10.5796 10.0289 9.0135 11.9336 9.0135C13.8384 9.0135 15.4045 10.5796 15.4045 12.4844C15.4045 14.3892 13.8384 15.9553 11.9336 15.9553Z" fill="#1C3965"/>
<path d="M17.5635 8.16987C18.2414 8.16987 18.791 7.62029 18.791 6.94236C18.791 6.26442 18.2414 5.71484 17.5635 5.71484C16.8855 5.71484 16.3359 6.26442 16.3359 6.94236C16.3359 7.62029 16.8855 8.16987 17.5635 8.16987Z" fill="#1C3965"/>
<path d="M20.7391 3.7667C19.6386 2.62384 18.0724 2.03125 16.2946 2.03125H7.57507C3.89253 2.03125 1.4375 4.48628 1.4375 8.16882V16.8461C1.4375 18.6662 2.03009 20.2323 3.21528 21.3752C4.35813 22.4757 5.88195 23.026 7.61739 23.026H16.2523C18.0724 23.026 19.5962 22.4334 20.6968 21.3752C21.8396 20.2746 22.4322 18.7085 22.4322 16.8884V8.16882C22.4322 6.39104 21.8396 4.86723 20.7391 3.7667ZM20.5698 16.8884C20.5698 18.2006 20.1042 19.2588 19.3423 19.9783C18.5804 20.6979 17.5222 21.0789 16.2523 21.0789H7.61739C6.34755 21.0789 5.28935 20.6979 4.52745 19.9783C3.76554 19.2164 3.38459 18.1582 3.38459 16.8461V8.16882C3.38459 6.89897 3.76554 5.84077 4.52745 5.07887C5.24702 4.35929 6.34755 3.97834 7.61739 3.97834H16.337C17.6068 3.97834 18.665 4.35929 19.4269 5.1212C20.1465 5.8831 20.5698 6.9413 20.5698 8.16882V16.8884Z" fill="#1C3965"/>
</g>
</svg>
