<svg width="42" height="32" viewBox="0 0 42 32" fill="none" xmlns="http://www.w3.org/2000/svg">
<path d="M13.8781 0C15.4074 0 16.172 0.611707 16.172 1.83512C16.172 2.29391 15.3309 3.51732 13.6487 5.50537C11.9666 7.49343 11.1255 9.29032 11.1255 10.8961C11.1255 11.8901 11.4695 12.8459 12.1577 13.7634C12.8459 14.6045 13.5723 15.3692 14.3369 16.0573C15.178 16.6691 15.9427 17.5866 16.6308 18.81C17.319 20.0335 17.6631 21.4098 17.6631 22.9391C17.6631 25.6153 16.822 27.7945 15.1398 29.4767C13.4576 31.1589 11.5078 32 9.29033 32C6.53764 32 4.28196 31.1207 2.5233 29.362C0.841099 27.5269 0 24.7742 0 21.1039C0 15.4456 1.5675 10.5137 4.70251 6.30824C7.91398 2.10275 10.9725 0 13.8781 0ZM37.5054 0C39.0347 0 39.7993 0.611707 39.7993 1.83512C39.7993 2.29391 38.9582 3.51732 37.276 5.50537C35.5938 7.49343 34.7527 9.29032 34.7527 10.8961C34.7527 12.1195 35.2879 13.2664 36.3584 14.3369C37.5054 15.3309 38.6141 16.5161 39.6846 17.8925C40.8316 19.2688 41.405 20.951 41.405 22.9391C41.405 25.6153 40.5257 27.7945 38.767 29.4767C37.0848 31.1589 35.135 32 32.9176 32C30.1649 32 27.9474 31.1207 26.2652 29.362C24.583 27.5269 23.7419 24.7742 23.7419 21.1039C23.7419 15.4456 25.3094 10.5137 28.4445 6.30824C31.5795 2.10275 34.5998 0 37.5054 0Z" fill="#FFB924"/>
</svg>
