<svg width="64" height="64" viewBox="0 0 64 64" fill="none" xmlns="http://www.w3.org/2000/svg">
<rect x="10.3906" y="9.5" width="40.8413" height="20.831" rx="3" transform="rotate(11.6255 10.3906 9.5)" fill="#FFB924"/>
<path d="M34.8958 30.054C34.9792 29.7048 35.33 29.4894 35.6791 29.5729L56.7422 34.6095C57.0902 34.6927 57.3055 35.0415 57.2239 35.3899L52.181 56.9217C52.0976 57.2774 51.7376 57.4947 51.384 57.4024L30.3254 51.9086C29.983 51.8193 29.775 51.4726 29.8573 51.1285L34.8958 30.054Z" fill="#F6F8FD" stroke="#1C3965" stroke-width="0.7"/>
<path fill-rule="evenodd" clip-rule="evenodd" d="M47.423 32.1356L35.2833 29.2327C34.7461 29.1043 34.2065 29.4356 34.0781 29.9728L32.793 35.3482L33.2887 35.4502V35.9969C34.1467 36.6832 35.4463 38.2529 36.5737 39.6146C37.6364 40.8981 38.5461 41.9969 38.7887 41.9969C38.9124 41.9969 38.9748 41.6805 39.0669 41.2143C39.3428 39.8171 39.8845 37.0748 43.1344 37.4758L43.2563 37.5008C44.8792 37.8347 46.4654 36.7898 46.7993 35.1669L47.423 32.1356Z" fill="#1C3965"/>
<path d="M12.7911 2.00235C9.78906 7 8.28747 7.00044 6.28957 7.5001C9.28906 10 8.58071 13.4309 8.79129 14.9979C11.2891 11.5 13.2891 10.5 15.2913 10.4979C11.7891 8 12.7916 4.9998 12.7911 2.00235Z" stroke="#1C3965" stroke-width="0.7" stroke-miterlimit="3.99933"/>
<circle cx="38.2891" cy="26" r="2" fill="white"/>
<circle cx="29.2891" cy="24" r="2" fill="#1C3965"/>
<circle cx="19.2891" cy="22" r="2" fill="#1C3965"/>
</svg>
