<svg width="24" height="24" viewBox="0 0 24 24" fill="none" xmlns="http://www.w3.org/2000/svg">
<g opacity="0.7">
<path d="M11.9365 7.07031C8.97358 7.07031 6.51855 9.48301 6.51855 12.4883C6.51855 15.4936 8.93125 17.9063 11.9365 17.9063C14.9418 17.9063 17.3545 15.4513 17.3545 12.4883C17.3545 9.52534 14.8995 7.07031 11.9365 7.07031ZM11.9365 15.9592C10.0318 15.9592 8.46564 14.3931 8.46564 12.4883C8.46564 10.5835 10.0318 9.0174 11.9365 9.0174C13.8413 9.0174 15.4074 10.5835 15.4074 12.4883C15.4074 14.3931 13.8413 15.9592 11.9365 15.9592Z" fill="white"/>
<path d="M17.5659 8.16596C18.2438 8.16596 18.7934 7.61639 18.7934 6.93845C18.7934 6.26051 18.2438 5.71094 17.5659 5.71094C16.888 5.71094 16.3384 6.26051 16.3384 6.93845C16.3384 7.61639 16.888 8.16596 17.5659 8.16596Z" fill="white"/>
<path d="M20.7406 3.7667C19.64 2.62384 18.0739 2.03125 16.2961 2.03125H7.57653C3.89399 2.03125 1.43896 4.48628 1.43896 8.16882V16.8461C1.43896 18.6662 2.03156 20.2323 3.21674 21.3752C4.3596 22.4757 5.88341 23.026 7.61886 23.026H16.2538C18.0739 23.026 19.5977 22.4334 20.6982 21.3752C21.8411 20.2746 22.4337 18.7085 22.4337 16.8884V8.16882C22.4337 6.39104 21.8411 4.86723 20.7406 3.7667ZM20.5712 16.8884C20.5712 18.2006 20.1056 19.2588 19.3437 19.9783C18.5818 20.6979 17.5236 21.0789 16.2538 21.0789H7.61886C6.34902 21.0789 5.29082 20.6979 4.52891 19.9783C3.76701 19.2164 3.38605 18.1582 3.38605 16.8461V8.16882C3.38605 6.89897 3.76701 5.84077 4.52891 5.07887C5.24849 4.35929 6.34902 3.97834 7.61886 3.97834H16.3384C17.6083 3.97834 18.6665 4.35929 19.4284 5.1212C20.148 5.8831 20.5712 6.9413 20.5712 8.16882V16.8884Z" fill="white"/>
</g>
</svg>
