<svg width="205" height="221" viewBox="0 0 205 221" fill="none" xmlns="http://www.w3.org/2000/svg">
<path d="M19.3474 43.4149C35.1364 32.8245 45.6524 51.3638 68.0339 59.3009C107.531 56.6552 77.2498 34.1667 82.516 20.4386C110.164 -13.4596 145.117 0.742401 141.167 20.4462L140.971 20.8476C131.084 41.0753 120.267 63.2053 145.117 53.5161C157.844 38.0828 186.72 15.1534 200.412 46.9018C204.362 61.8941 201.466 91.8788 158.283 91.8788C149.944 90.9968 136.428 92.4079 149.067 105.107C171.887 105.107 214.631 113.573 203.045 147.438C199.198 161.986 195.343 170.104 181.981 180.51C178.63 184.972 178.031 189.77 171.448 189.77C149.067 189.77 134.584 143.47 126.685 138.178C118.786 132.887 116.153 151.407 120.102 189.77C123.262 220.46 95.9655 222.841 81.9222 220.195C50.3249 222.841 75.3395 177.864 75.3395 177.864C105.62 134.21 77.974 135.092 70.0754 147.438C63.9308 161.99 44.5325 186.859 16.0966 169.927C-12.3393 152.994 21.8009 134.651 42.4255 127.596C64.9918 103.399 56.5121 92.2826 21.3106 94.8508C20.0589 94.9421 18.7741 94.5712 17.7987 93.7814C-9.39185 71.764 -2.64394 51.2192 19.3474 43.4149Z" fill="#F6F8FD"/>
</svg>
