<svg width="64" height="64" viewBox="0 0 64 64" fill="none" xmlns="http://www.w3.org/2000/svg">
<path d="M27.6289 22.5L28.1289 33.5C28.2956 34.6667 29.7289 36.8 34.1289 36" stroke="#1C3965" stroke-width="0.7" stroke-linejoin="round"/>
<path d="M32.6289 47L36.6289 43" stroke="#1C3965" stroke-width="0.7" stroke-linejoin="round"/>
<path d="M51.6289 40L46.6289 31.5" stroke="#1C3965" stroke-width="0.7" stroke-linejoin="round"/>
<circle cx="33.1289" cy="25.5" r="0.5" fill="#1C3965"/>
<path d="M32.1289 23.5005C33.1289 23.0005 35.1289 23.5041 35.6289 24.4953" stroke="#1C3965" stroke-width="0.7" stroke-linecap="round" stroke-linejoin="round"/>
<path d="M34.1289 36C35.1289 36 37.4622 34.5 38.1289 33.5L36.6289 43C36.6289 40.5 34.1289 36 34.1289 36Z" fill="#1C3965" stroke="#1C3965" stroke-width="0.7" stroke-linejoin="round"/>
<path d="M31.1289 31C31.9622 30.8333 33.1289 30.3 33.1289 29.5" stroke="#1C3965" stroke-width="0.7" stroke-linecap="round" stroke-linejoin="round"/>
<path d="M40.1289 25C40.5289 23.8 40.1289 23.3333 39.6289 23H40.6289H41.6289C40.6289 23.5 39.7289 26.2 40.1289 25Z" fill="#1C3965" stroke="#1C3965" stroke-width="0.7" stroke-linejoin="round"/>
<path d="M31.1302 21.5005C25.9302 24.3005 26.2969 20.0005 27.1302 17.5005L47.6289 15.5005C51.6289 14.0005 51.6289 16 51.6289 18.0005C52.8289 19.2005 52.1289 22.1672 51.6289 23.5005C49.6289 23.9005 49.4622 26.3338 49.6289 27.5005C46.8289 35.5005 44.4622 30.5005 43.6289 27.0005V22.0005C42.0289 18.0005 39.2956 20.3338 38.1289 22.0005C37.9627 20.6672 36.3302 18.7005 31.1302 21.5005Z" fill="#1C3965" stroke="#1C3965" stroke-linejoin="round"/>
<path d="M29.1289 22.5V25.5L28.1289 28.5L29.6289 29" stroke="#1C3965" stroke-width="0.7" stroke-linejoin="round"/>
<path d="M26.1289 18L21.1289 13.5L27.6289 13L35.1289 5L42.6289 10L50.6289 9L47.6289 15.5L26.1289 18Z" fill="#FFB924" stroke="#FFB924" stroke-linejoin="round"/>
<path d="M27.6285 13L39.5736 10.5022" stroke="#1C3965" stroke-width="0.7"/>
<path d="M36.6294 47.9986C56.6294 31.1987 62.6289 43.9998 63.1289 58.4995L18.1289 58.4997L33.6294 45.9993C33.2294 48.3993 35.4627 48.3322 36.6294 47.9986Z" fill="#FFB924" stroke="#FFB924" stroke-linejoin="round"/>
<path d="M31.6289 59C31.6289 56.5 41.9289 44.7 45.1289 43.5" stroke="#1C3965" stroke-width="0.7" stroke-linejoin="round"/>
<circle cx="32.6289" cy="52" r="1" fill="#1C3965"/>
<path d="M45.6289 59C45.6289 57.6667 50.1289 55 52.6289 55" stroke="#1C3965" stroke-width="0.7" stroke-linejoin="round"/>
<path d="M3.12911 36C-0.470893 34 1.29577 30.1667 2.62911 28.5H3.12891L3.62891 36H3.12911Z" fill="#1C3965" stroke="#1C3965" stroke-linejoin="round"/>
<path d="M19.6289 28H3.12891" stroke="#1C3965" stroke-width="0.7" stroke-linejoin="round"/>
<path d="M20.1289 32L3.62891 36.5" stroke="#1C3965" stroke-linejoin="round"/>
<path d="M22.2789 30C22.2789 30.769 22.0705 31.4493 21.7519 31.9272C21.4317 32.4075 21.0278 32.65 20.6289 32.65C20.2301 32.65 19.8261 32.4075 19.5059 31.9272C19.1873 31.4493 18.9789 30.769 18.9789 30C18.9789 29.231 19.1873 28.5507 19.5059 28.0728C19.8261 27.5925 20.2301 27.35 20.6289 27.35C21.0278 27.35 21.4317 27.5925 21.7519 28.0728C22.0705 28.5507 22.2789 29.231 22.2789 30Z" stroke="#1C3965" stroke-width="0.7"/>
<path d="M3.64225 37.3924L2.35547 26.7422L4.54772 26.6281L5.8345 37.2783L3.64225 37.3924Z" fill="white" stroke="#1C3965" stroke-width="0.7" stroke-linejoin="round"/>
<path d="M11.1289 33L9.62891 34.5L10.1289 36L13.1289 37L16.6289 34L14.1289 32L11.1289 33Z" fill="white"/>
<path d="M31.6289 58.5L16.1289 33L14.1289 31.5L10.1289 33L13.1289 33.5L8.12891 34.5L11.1289 35.5L8.62891 36L13.1289 37L12.1289 38L13.6289 38.5L17.6289 58.5H18" stroke="#1C3965" stroke-width="0.7" stroke-linejoin="round"/>
</svg>
